<?xml version="1.0" encoding="iso-8859-1"?>
<!-- Generator: Adobe Illustrator 14.0.0, SVG Export Plug-In . SVG Version: 6.00 Build 43363)  -->
<!DOCTYPE svg PUBLIC "-//W3C//DTD SVG 1.1//EN" "http://www.w3.org/Graphics/SVG/1.1/DTD/svg11.dtd">
<svg version="1.1" id="Layer_1" xmlns="http://www.w3.org/2000/svg" xmlns:xlink="http://www.w3.org/1999/xlink" x="0px" y="0px"
	 width="21.204px" height="17.379px" viewBox="0 0 21.204 17.379" style="enable-background:new 0 0 21.204 17.379;"
	 xml:space="preserve">
   	<style>
 		path {
 			fill: #c5cad8;
 		}
 	</style>
<path d="M19.032,0H7.714C6.517,0,5.542,0.974,5.542,2.171v0.55H2.171C0.974,2.721,0,3.694,0,4.892v6.106
	c0,1.196,0.974,2.17,2.171,2.17h1.592v3.463c0,0.308,0.189,0.584,0.478,0.697c0.089,0.034,0.182,0.051,0.272,0.051
	c0.205,0,0.405-0.084,0.55-0.239l3.688-3.981l4.609-0.057l3.741,4.038c0.146,0.155,0.345,0.239,0.55,0.239
	c0.093,0,0.186-0.017,0.273-0.051c0.287-0.113,0.477-0.391,0.477-0.699V13.17h0.631c1.196,0,2.172-0.975,2.172-2.172V2.171
	C21.204,0.974,20.229,0,19.032,0z M14.938,10.911c0,0.37-0.302,0.672-0.674,0.672l-5.786,0.016c-0.208,0.001-0.407,0.088-0.548,0.24
	l-2.667,2.879V12.42c0-0.199-0.079-0.392-0.22-0.531c-0.142-0.141-0.331-0.221-0.53-0.221H2.171c-0.37,0-0.671-0.301-0.671-0.67
	V4.892c0-0.37,0.301-0.671,0.671-0.671h12.095c0.37,0,0.672,0.301,0.672,0.671V10.911z"/>
</svg>
