<?xml version="1.0" encoding="utf-8"?>
<!-- Generator: Adobe Illustrator 19.0.0, SVG Export Plug-In . SVG Version: 6.00 Build 0)  -->
<svg version="1.1" id="Layer_1" xmlns="http://www.w3.org/2000/svg" xmlns:xlink="http://www.w3.org/1999/xlink" x="0px" y="0px"
	 viewBox="-275 367 60 60" style="enable-background:new -275 367 60 60;" xml:space="preserve">
<style type="text/css">
	.st0{fill:none;stroke:#847EAC;stroke-width:2.5914;stroke-linecap:round;stroke-linejoin:round;}
	.st1{fill:none;stroke:#847EAC;stroke-width:1.2955;stroke-linecap:round;stroke-linejoin:round;}
	.st2{fill:#847EAC;}
</style>
<g id="XMLID_13205_">
	<g id="XMLID_13337_">
		<path id="XMLID_13339_" class="st0" d="M-245,396.9"/>
	</g>
	<path id="XMLID_13206_" class="st0" d="M-216.3,397c0,15.9-12.9,28.7-28.7,28.7c-15.9,0-28.7-12.8-28.7-28.7s12.8-28.7,28.7-28.7
		C-229.1,368.2-216.3,381.1-216.3,397z"/>
</g>
<g>
	<path class="st1" d="M-262.5,409.6c5-4.3,10.7-3.8,16.9,0c6.5,4,13.8,4,17.5,0.2"/>
	<g>
		<path class="st2" d="M-237.8,399.1c0,0.3,0,0.6-0.1,0.8c0,0.2-0.1,0.4-0.2,0.5c-0.1,0.1-0.1,0.2-0.2,0.3c-0.1,0.1-0.2,0.1-0.3,0.1
			h-12.6c-0.1,0-0.2,0-0.3-0.1c-0.1-0.1-0.2-0.2-0.2-0.3c-0.1-0.1-0.1-0.3-0.1-0.5c0-0.2-0.1-0.5-0.1-0.8c0-0.3,0-0.6,0-0.9
			c0-0.2,0.1-0.4,0.1-0.6c0.1-0.1,0.1-0.2,0.2-0.3c0.1-0.1,0.2-0.1,0.3-0.1h4.3v-14.9l-3.7,2c-0.3,0.1-0.5,0.2-0.7,0.2
			c-0.2,0-0.3,0-0.4-0.1c-0.1-0.1-0.2-0.3-0.2-0.5c0-0.2-0.1-0.6-0.1-1c0-0.3,0-0.5,0-0.7c0-0.2,0-0.3,0.1-0.5
			c0-0.1,0.1-0.2,0.2-0.3c0.1-0.1,0.2-0.2,0.3-0.3l4.9-3.2c0.1,0,0.1-0.1,0.2-0.1c0.1,0,0.2-0.1,0.3-0.1c0.1,0,0.3,0,0.6,0
			c0.2,0,0.5,0,0.9,0c0.4,0,0.8,0,1.1,0c0.3,0,0.5,0,0.6,0.1c0.1,0,0.2,0.1,0.3,0.2c0,0.1,0.1,0.2,0.1,0.3v18.9h3.7
			c0.1,0,0.2,0,0.3,0.1c0.1,0.1,0.2,0.2,0.2,0.3c0.1,0.1,0.1,0.3,0.1,0.6C-237.8,398.5-237.8,398.8-237.8,399.1z"/>
	</g>
</g>
</svg>
