<?xml version="1.0" encoding="utf-8"?>
<!-- Generator: Adobe Illustrator 14.0.0, SVG Export Plug-In . SVG Version: 6.00 Build 43363)  -->
<!DOCTYPE svg PUBLIC "-//W3C//DTD SVG 1.1//EN" "http://www.w3.org/Graphics/SVG/1.1/DTD/svg11.dtd">
<svg version="1.1" id="Google_Plus_alt" xmlns="http://www.w3.org/2000/svg" xmlns:xlink="http://www.w3.org/1999/xlink" x="0px"
	 y="0px" width="420px" height="280px" viewBox="46 116 420 280" enable-background="new 46 116 420 280" xml:space="preserve">
   	<style>
 		path, polygon {
 			fill: #888;
 		}
 	</style>
<path d="M317.686,229.75c1.752,9.361,2.709,19.162,2.709,29.398C320.395,339.125,266.852,396,186,396c-77.349,0-140-62.65-140-140
	c0-77.349,62.651-140,140-140c37.803,0,69.385,13.911,93.627,36.487l-39.469,39.465v-0.09
	c-14.697-14.001-33.333-21.174-54.158-21.174c-46.198,0-83.736,39.023-83.736,85.227c0,46.194,37.538,85.313,83.736,85.313
	c41.913,0,70.436-23.978,76.307-56.875H186V229.75H317.686z"/>
<polygon points="422.25,238.5 422.25,194.75 387.25,194.75 387.25,238.5 343.5,238.5 343.5,273.5 387.25,273.5 387.25,317.25 
	422.25,317.25 422.25,273.5 466,273.5 466,238.5 "/>
</svg>
