<?xml version="1.0" encoding="utf-8"?>
<!-- Generator: Adobe Illustrator 14.0.0, SVG Export Plug-In . SVG Version: 6.00 Build 43363)  -->
<!DOCTYPE svg PUBLIC "-//W3C//DTD SVG 1.1//EN" "http://www.w3.org/Graphics/SVG/1.1/DTD/svg11.dtd">
<svg version="1.1" id="Capa_1" xmlns="http://www.w3.org/2000/svg" xmlns:xlink="http://www.w3.org/1999/xlink" x="0px" y="0px"
	 width="595.28px" height="483.538px" viewBox="0 179.177 595.28 483.538" enable-background="new 0 179.177 595.28 483.538"
	 xml:space="preserve">
	<style>
 		path {
 			fill: #888;
 		}
 	</style>
	<path fill="#010002" d="M595.28,236.387c-21.91,9.708-45.418,16.292-70.119,19.231c25.221-15.103,44.527-39.058,53.676-67.515
		c-23.656,13.986-49.77,24.142-77.596,29.647c-22.281-23.77-53.973-38.575-89.125-38.575c-67.441,0-122.122,54.682-122.122,122.084
		c0,9.56,1.079,18.896,3.162,27.825C191.681,323.988,101.7,275.371,41.476,201.495C30.949,219.5,24.96,240.478,24.96,262.872
		c0,42.369,21.575,79.753,54.31,101.625c-20.013-0.669-38.835-6.175-55.313-15.326v1.525c0,59.145,42.108,108.507,97.942,119.741
		c-10.229,2.753-21.017,4.277-32.176,4.277c-7.885,0-15.511-0.78-22.988-2.269c15.548,48.543,60.633,83.844,114.05,84.812
		c-41.774,32.734-94.446,52.189-151.656,52.189c-9.857,0-19.566-0.596-29.126-1.675c54.049,34.707,118.215,54.942,187.181,54.942
		c224.638,0,347.429-186.064,347.429-347.43l-0.408-15.809C558.194,282.364,578.95,260.863,595.28,236.387z"/>
</svg>
